<svg width="26" height="26" viewBox="0 0 26 26" fill="none" xmlns="http://www.w3.org/2000/svg">
<path d="M9.61621 5.67285C10.028 5.26124 10.7064 5.26116 11.1182 5.67285C11.5299 6.08459 11.5298 6.76299 11.1182 7.1748L5.29297 13L11.1182 18.8252C11.5297 19.237 11.5299 19.9154 11.1182 20.3271L11.1172 20.3262C10.9111 20.5429 10.6277 20.6386 10.3672 20.6387C10.0987 20.6387 9.82802 20.5388 9.61621 20.3271L3.04004 13.751C2.62835 13.3392 2.62843 12.6608 3.04004 12.249L9.61621 5.67285Z" fill="black" stroke="black" stroke-width="0.5"/>
<path d="M22.208 11.9375C22.7902 11.9375 23.2705 12.4178 23.2705 13C23.2705 13.5822 22.7902 14.0625 22.208 14.0625H3.97559C3.39335 14.0625 2.91309 13.5822 2.91309 13C2.91309 12.4178 3.39335 11.9375 3.97559 11.9375H22.208Z" fill="black" stroke="black" stroke-width="0.5"/>
</svg>
